# xmcd CD database file
# Copyright (C) 1996 Ti Kan
#
# Track frame offsets:
#	150
#	13075
#	34735
#	53895
#	77835
#	90755
#	108515
#	126540
#	139537
#	153695
#	165925
#	187335
#	202897
#	217275
#	236572
#	256525
#
# Disc length: 3683 seconds
#
# Revision: 1
# Processed by: cddbd v1.4b41PL1 Copyright (c) Steve Scherf et al.
# Submitted via: EasyCD 2.21 - (C) 1996 Greg Leichner
#
DISCID=d80e6110
DTITLE=Julie Dalton - Wine, Woman and Songs
DYEAR=1900
DGENRE=
TTITLE0=Blue Velvet
TTITLE1=Killing Me Softly
TTITLE2=If I fell - and I love him
TTITLE3=Girl from Ipanema
TTITLE4=When I fall in love
TTITLE5=Sometimes when we touch
TTITLE6=Lady in red
TTITLE7=Brown eyes blue
TTITLE8=Let there be love
TTITLE9=Crazy
TTITLE10=As time goes by
TTITLE11=Unforgettable
TTITLE12=Desperado
TTITLE13=Summertime
TTITLE14=Tears in heaven
TTITLE15=Always on my mind
EXTD=
EXTT0=
EXTT1=
EXTT2=
EXTT3=
EXTT4=
EXTT5=
EXTT6=
EXTT7=
EXTT8=
EXTT9=
EXTT10=
EXTT11=
EXTT12=
EXTT13=
EXTT14=
EXTT15=
PLAYORDER=
